<?xml version="1.0" encoding="UTF-8" standalone="no"?>
<!DOCTYPE svg PUBLIC "-//W3C//DTD SVG 1.1//EN" "http://www.w3.org/Graphics/SVG/1.1/DTD/svg11.dtd">
<svg version="1.1" xmlns="http://www.w3.org/2000/svg" xmlns:xlink="http://www.w3.org/1999/xlink" preserveAspectRatio="xMidYMid meet" viewBox="0 0 640 640" width="640" height="640"><defs><path d="M522.68 94.6C554.34 94.6 580 120.26 580 151.92C580 222.62 580 377.38 580 448.08C580 479.74 554.34 505.4 522.68 505.4C430.14 505.4 209.86 505.4 117.32 505.4C85.66 505.4 60 479.74 60 448.08C60 377.38 60 222.62 60 151.92C60 120.26 85.66 94.6 117.32 94.6C209.86 94.6 430.14 94.6 522.68 94.6Z" id="be1kaFslg"></path><path d="M380 503.91C380 511.07 380 515.55 380 517.34C380 531.23 387.85 543.92 400.27 550.13C404.21 552.11 407.56 553.78 414.45 557.23C418.13 559.06 421.48 561.48 424.39 564.39C427.51 567.51 429.37 569.37 431.72 571.72C434.77 574.77 432.61 580 428.29 580C382.63 580 256.5 580 210.62 580C206.7 580 204.74 575.26 207.51 572.49C210.01 569.99 207.39 572.61 209.24 570.76C216.37 563.63 224.6 557.7 233.61 553.19C238.89 550.55 238.21 550.89 242.76 548.62C253.33 543.34 260 532.54 260 520.73C260 519.1 260 515.03 260 508.51" id="a4BiJuMRnY"></path><path d="M512.56 120C538.76 120 560 141.24 560 167.44C560 225.95 560 354.05 560 412.56C560 438.76 538.76 460 512.56 460C426.05 460 213.95 460 127.44 460C101.24 460 80 438.76 80 412.56C80 354.05 80 225.95 80 167.44C80 141.24 101.24 120 127.44 120C213.95 120 426.05 120 512.56 120Z" id="b8kq3TrfI"></path><path d="M430 160C320 160 246.67 160 210 160" id="g84oSz8etP"></path><path d="M430 400C320 400 246.67 400 210 400" id="cmnatOQsT"></path><path d="M430 222.76C320 222.76 246.67 222.76 210 222.76" id="bmNqPokID"></path><path d="M430 340C320 340 246.67 340 210 340" id="f1YGwsaECK"></path><path d="M430 280C320 280 246.67 280 210 280" id="b1uCf4m1iT"></path><path d="M182.84 145L164.57 145L164.57 175L191.98 175L191.98 157.5L196.55 157.5L196.55 180L160 180L160 140L182.84 140L182.84 145ZM181.95 163.02L181.95 163.03L176.66 168.82L166.85 158.09L172.14 152.29L176.66 157.23L188.97 143.75L194.27 149.54L181.95 163.02Z" id="b64GcUepho"></path><path d="M179.4 325L161.12 325L161.12 355L188.53 355L188.53 337.5L193.1 337.5L193.1 360L156.55 360L156.55 320L179.4 320L179.4 325ZM178.5 343.02L178.5 343.03L173.21 348.82L163.4 338.09L168.69 332.29L173.21 337.23L185.52 323.75L190.82 329.54L178.5 343.02Z" id="b4kzqHGWRF"></path><path d="M181.29 262.54L163.02 262.54C163.02 277.71 163.02 287.19 163.02 290.99C163.02 291.85 163.71 292.54 164.57 292.54C168.02 292.54 176.64 292.54 190.43 292.54L190.43 275.04L195 275.04L195 297.54L158.45 297.54L158.45 257.54L181.29 257.54L181.29 262.54ZM180.4 280.56L180.4 280.57L175.1 286.36L165.3 275.63L170.59 269.83L175.1 274.77L187.42 261.29L192.72 267.09L180.4 280.56Z" id="a2OF4r5UAM"></path><path d="M190 400L190 420L158.85 420L158.44 385L177.58 385" id="e6cdIqW6eR"></path><path d="M191.56 225L191.56 245L160.41 245L160 210L179.14 210" id="b1Lyn7GC8G"></path></defs><g><g><g><g><use xlink:href="#be1kaFslg" opacity="1" fill-opacity="0" stroke="#ffffff" stroke-width="10" stroke-opacity="1"></use></g></g><g><g><use xlink:href="#a4BiJuMRnY" opacity="1" fill-opacity="0" stroke="#ffffff" stroke-width="10" stroke-opacity="1"></use></g></g><g><g><use xlink:href="#b8kq3TrfI" opacity="1" fill-opacity="0" stroke="#ffffff" stroke-width="10" stroke-opacity="1"></use></g></g><g><use xlink:href="#g84oSz8etP" opacity="1" fill="#ffffff" fill-opacity="1"></use><g><use xlink:href="#g84oSz8etP" opacity="1" fill-opacity="0" stroke="#ffffff" stroke-width="10" stroke-opacity="1"></use></g></g><g><use xlink:href="#cmnatOQsT" opacity="1" fill="#ffffff" fill-opacity="1"></use><g><use xlink:href="#cmnatOQsT" opacity="1" fill-opacity="0" stroke="#ffffff" stroke-width="10" stroke-opacity="1"></use></g></g><g><use xlink:href="#bmNqPokID" opacity="1" fill="#ffffff" fill-opacity="1"></use><g><use xlink:href="#bmNqPokID" opacity="1" fill-opacity="0" stroke="#ffffff" stroke-width="10" stroke-opacity="1"></use></g></g><g><use xlink:href="#f1YGwsaECK" opacity="1" fill="#ffffff" fill-opacity="1"></use><g><use xlink:href="#f1YGwsaECK" opacity="1" fill-opacity="0" stroke="#ffffff" stroke-width="10" stroke-opacity="1"></use></g></g><g><use xlink:href="#b1uCf4m1iT" opacity="1" fill="#ffffff" fill-opacity="1"></use><g><use xlink:href="#b1uCf4m1iT" opacity="1" fill-opacity="0" stroke="#ffffff" stroke-width="10" stroke-opacity="1"></use></g></g><g><use xlink:href="#b64GcUepho" opacity="1" fill="#ffffff" fill-opacity="1"></use></g><g><use xlink:href="#b4kzqHGWRF" opacity="1" fill="#ffffff" fill-opacity="1"></use></g><g><use xlink:href="#a2OF4r5UAM" opacity="1" fill="#ffffff" fill-opacity="1"></use></g><g><g><use xlink:href="#e6cdIqW6eR" opacity="1" fill-opacity="0" stroke="#ffffff" stroke-width="5" stroke-opacity="1"></use></g></g><g><g><use xlink:href="#b1Lyn7GC8G" opacity="1" fill-opacity="0" stroke="#ffffff" stroke-width="5" stroke-opacity="1"></use></g></g></g></g></svg>